#tb 0: 1/25
0,          0,          0,        1,   149760, 0xcfffa013
0,          1,          1,        1,   149760, 0x5166146a
0,          2,          2,        1,   149760, 0xc3cc318e
0,          3,          3,        1,   149760, 0xcedf65a0
0,          4,          4,        1,   149760, 0x10c97bd4
0,          5,          5,        1,   149760, 0xd9d5c4ab
0,          6,          6,        1,   149760, 0x5112e11d
0,          7,          7,        1,   149760, 0xde3803d6
0,          8,          8,        1,   149760, 0x82c62409
0,          9,          9,        1,   149760, 0x69a587f2
0,         10,         10,        1,   149760, 0x90e2ac16
0,         11,         11,        1,   149760, 0xdc2ed2ba
0,         12,         12,        1,   149760, 0xcabec51f
0,         13,         13,        1,   149760, 0x915de948
0,         14,         14,        1,   149760, 0xd824e422
0,         15,         15,        1,   149760, 0x10f91769
0,         16,         16,        1,   149760, 0xf8ea1f0a
0,         17,         17,        1,   149760, 0x88306494
0,         18,         18,        1,   149760, 0x4b667403
0,         19,         19,        1,   149760, 0x190b939f
0,         20,         20,        1,   149760, 0xe754929d
0,         21,         21,        1,   149760, 0xdd1eb9b5
0,         22,         22,        1,   149760, 0x5ef1c64b
0,         23,         23,        1,   149760, 0xab92e9f9
0,         24,         24,        1,   149760, 0x873fec38
0,         25,         25,        1,   149760, 0x1f0ca11f
0,         26,         26,        1,   149760, 0xa2f591ca
0,         27,         27,        1,   149760, 0x2713a994
0,         28,         28,        1,   149760, 0xfbdba1f9
0,         29,         29,        1,   149760, 0x3742ed2e
0,         30,         30,        1,   149760, 0xf43fe43c
0,         31,         31,        1,   149760, 0xa84ff250
0,         32,         32,        1,   149760, 0xd4437e12
0,         33,         33,        1,   149760, 0xcf08c736
0,         34,         34,        1,   149760, 0x0cedd0d6
0,         35,         35,        1,   149760, 0xc317e9bc
0,         36,         36,        1,   149760, 0x0dcbd636
0,         37,         37,        1,   149760, 0x4e6501b0
0,         38,         38,        1,   149760, 0x5f9c02bb
0,         39,         39,        1,   149760, 0x43052939
0,         40,         40,        1,   149760, 0x8ec12318
0,         41,         41,        1,   149760, 0xc51577f3
0,         42,         42,        1,   149760, 0xbda1775b
0,         43,         43,        1,   149760, 0x62b7b2a2
0,         44,         44,        1,   149760, 0x5dd68203
0,         45,         45,        1,   149760, 0xe004b4bf
0,         46,         46,        1,   149760, 0x1469769f
0,         47,         47,        1,   149760, 0x96f57e0a
0,         48,         48,        1,   149760, 0x75e58819
0,         49,         49,        1,   149760, 0xf826a158
0,         50,         50,        1,   149760, 0xf789a3bd
0,         51,         51,        1,   149760, 0x9d8fb09a
0,         52,         52,        1,   149760, 0x1d33bbe5
0,         53,         53,        1,   149760, 0x7e93e014
0,         54,         54,        1,   149760, 0x04ade2e6
0,         55,         55,        1,   149760, 0xb93a2c32
0,         56,         56,        1,   149760, 0x5fa73dc3
0,         57,         57,        1,   149760, 0xa70099ee
0,         58,         58,        1,   149760, 0xcc5aaf3e
0,         59,         59,        1,   149760, 0x4e83f938
0,         60,         60,        1,   149760, 0x9faae668
0,         61,         61,        1,   149760, 0x7a5cbf24
0,         62,         62,        1,   149760, 0x4b23714c
0,         63,         63,        1,   149760, 0x55d246ad
0,         64,         64,        1,   149760, 0xd3378be9
0,         65,         65,        1,   149760, 0xf5ef9731
0,         66,         66,        1,   149760, 0xc4ba3ad7
0,         67,         67,        1,   149760, 0xd9182d2c
0,         68,         68,        1,   149760, 0x0ff5eaa5
0,         69,         69,        1,   149760, 0xefe21a58
0,         70,         70,        1,   149760, 0x4cad2a57
0,         71,         71,        1,   149760, 0x24a35d1a
0,         72,         72,        1,   149760, 0xeb1b6a6e
